<svg class="svg-canvas" viewBox="8.670154469576133 204.88553632951113 189.87109144350524 189.87109144350524"
     width="1200" height="1200" preserveAspectRatio="none" version="1.1" xmlns="http://www.w3.org/2000/svg"
     xmlns:xlink="http://www.w3.org/1999/xlink" style="background: rgb(255,255,255);background:#f0e9ff;">
    <g id="shape_P1i1rJC8Tr" ref="shape_P1i1rJC8Tr" key="shape_P1i1rJC8Tr"
       transform="translate(31.302267899172804,227.51604181203425) rotate(0,72.3034242379328,72.3050449047856) scale(1,1)"
       style="opacity: 1;" filter="url(#filter_shadow_shape_P1i1rJC8Tr)">
        <defs>
            <filter id="filter_shadow_shape_P1i1rJC8Tr" width="100%" height="100%" x="0%" y="0%">
                <feDropShadow dx="0" dy="0" stdDeviation="0" flood-color="#000000" flood-opacity="0.4"></feDropShadow>
            </filter>
        </defs>
        <svg version="1.1" id="图层_1" xmlns="http://www.w3.org/2000/svg" xmlns:xlink="http://www.w3.org/1999/xlink"
             x="0px" y="0px" style="enable-background:new 0 0 283.465 283.465;" xml:space="preserve"
             viewBox="51.875 51.87200164794922 179.71697998046875 179.72100830078125" width="144.6068484758656"
             height="144.6100898095712" class="style-removed" preserveAspectRatio="none" data-parent="shape_P1i1rJC8Tr">
<path d="M51.875,231.593h33.455c0-31.149,25.252-56.398,56.398-56.398c31.158,0,56.404,25.249,56.404,56.398
	h33.46V51.872C132.332,51.872,51.875,132.335,51.875,231.593z M141.727,169.126c-15.127,0-27.39-12.264-27.39-27.394
	s12.264-27.393,27.39-27.393c15.133,0,27.402,12.263,27.402,27.393S156.859,169.126,141.727,169.126z" fill="#6726ff"
      stroke-width="0"></path>
</svg>
    </g>
</svg>